<svg width="32" height="32" viewBox="0 0 32 32" fill="none" xmlns="http://www.w3.org/2000/svg">
  <path d="M16 2H10.5C7.4625 2 5 4.4625 5 7.5C5 9.95 6.55 12.0375 8.75 12.8C7.3 13.5125 6.15 14.725 5.6125 16.2125C5.2125 17.325 5.2125 18.525 5.6125 19.6375C6.35 21.7125 8.2875 23.0875 10.5 23H16V2ZM10.5 18.5C10.5 19.875 11.625 21 13 21H14V16H13C11.625 16 10.5 17.125 10.5 18.5ZM10.5 11.5C10.5 12.875 11.625 14 13 14H14V9H13C11.625 9 10.5 10.125 10.5 11.5ZM16 7H17C18.375 7 19.5 5.875 19.5 4.5C19.5 3.125 18.375 2 17 2H16V7ZM17 9H16V14H17C18.375 14 19.5 12.875 19.5 11.5C19.5 10.125 18.375 9 17 9ZM21.5 11.5C21.5 12.875 22.625 14 24 14C25.375 14 26.5 12.875 26.5 11.5C26.5 10.125 25.375 9 24 9C22.625 9 21.5 10.125 21.5 11.5ZM21.25 18.5C21.25 20.575 22.925 22.25 25 22.25C27.075 22.25 28.75 20.575 28.75 18.5C28.75 16.425 27.075 14.75 25 14.75C22.925 14.75 21.25 16.425 21.25 18.5Z" fill="#6F5DE0"/>
</svg>