<svg width="32" height="32" viewBox="0 0 32 32" fill="none" xmlns="http://www.w3.org/2000/svg">
  <path d="M4 3C2.89543 3 2 3.89543 2 5V27C2 28.1046 2.89543 29 4 29H28C29.1046 29 30 28.1046 30 27V5C30 3.89543 29.1046 3 28 3H4ZM7.5 12H11C12.6569 12 14 13.3431 14 15C14 16.6569 12.6569 18 11 18H9.5V22H7.5V12ZM9.5 14V16H11C11.5523 16 12 15.5523 12 15C12 14.4477 11.5523 14 11 14H9.5ZM17 12H19V18.5C19 19.3284 19.6716 20 20.5 20C21.3284 20 22 19.3284 22 18.5V12H24V18.5C24 20.433 22.433 22 20.5 22C18.567 22 17 20.433 17 18.5V12Z" fill="#6F5DE0"/>
</svg> 